<svg xmlns="http://www.w3.org/2000/svg" viewBox="0 0 324 305.86">
	<g fill="#666" fill-rule="evenodd">
		<path d="M225 5.82H97.64c-3.34 0-6.67.06-10 .15a144.81 144.81 0 0 0-21.78 1.91 73.54 73.54 0 0 0-20.69 6.82 69.63 69.63 0 0 0-30.43 30.43 73.58 73.58 0 0 0-6.83 20.71A145.74 145.74 0 0 0 6 87.6c-.09 3.34-.13 6.67-.15 10s0 6.62 0 9.93H0V95.21c0-3.46.06-6.91.15-10.37a150.11 150.11 0 0 1 2-22.58 76.17 76.17 0 0 1 7.07-21.47A72.24 72.24 0 0 1 40.78 9.24a75.79 75.79 0 0 1 21.46-7.07 150.12 150.12 0 0 1 22.59-2C88.28.07 91.74.04 95.2.01H225zM5.81 224.37H.02v-7.89h5.79q-.02 3.95 0 7.89zm-.47-9.84h.45v1.94H0V107.54h5.79v106.94z"/>
		<path d="M2.89 221.15a2.9 2.9 0 1 1-2.89 2.9 2.89 2.89 0 0 1 2.89-2.9zM225.32.01a2.9 2.9 0 1 1-2.89 2.89 2.89 2.89 0 0 1 2.89-2.89z"/>
	</g>
	<path fill="#feefef" fill-rule="evenodd" d="M309.13 111.72v40.38L12.46 236.69c-.06-1.44-.11-2.87-.15-4.31-.09-3.16-.12-6.33-.14-9.5V111.72v-11.29c0-3.17 0-6.34.14-9.51a155.77 155.77 0 0 1 1.82-22 61.87 61.87 0 0 1 6.51-18.37c3.15-6.19 6.63-13.13 11.53-18s9.93-7.74 16.12-10.89 14-5.24 21-6.48a136.89 136.89 0 0 1 20.7-1.82c3.17-.09 6.34-.13 9.51-.15H221.92c3.17 0 6.34 0 9.51.14a136.89 136.89 0 0 1 20.7 1.82 69.73 69.73 0 0 1 19.67 6.48 66.18 66.18 0 0 1 28.84 28.9 69.79 69.79 0 0 1 6.48 19.68 138.06 138.06 0 0 1 1.82 20.69c.09 3.17.12 6.34.14 9.51v11.29z"/>
	<g fill="#f4645f">
		<path d="M60.74 110.3l-4-1.66-1.75-2.95 2.49-7.82h21.54l2.21 7.27-1.47 3.78-4.88 1.38v6.17h28.76v-6.46l-6-2.21-18.3-55.69H62.77L44.26 107.9l-5.8 2.12v6.45h22.28zm3.68-34.9l2.67-12h2.21l2.67 12 4.42 14.37H59.91zM118.03 61.41c4.69 0 8.19-3.32 8.19-7.64s-3.5-7.65-8.19-7.65-8.2 3.32-8.2 7.65 3.5 7.64 8.2 7.64zm-12.53 55.06h26.43v-5.62l-4.24-.92-2.11-4V68.4H105.5v5.61l4.7.92 2.12 4v27.08l-2.12 4-4.7.92zM161.86 110.85l-4.88-.92-2.12-4V93.36c0-6.17 2.3-11.24 7.37-14.83l4.51 4.88c4.79.28 9.94-2.67 9.94-8.65a7.4 7.4 0 0 0-7.73-7.55c-4.88 0-9.76 4.23-14.27 15.56l-.74-.37.92-11.69V68.4h-19.79v5.61l4.42.92 2.11 4v27.08l-2.11 4-4.42.92v5.62h26.79zM222.09 111.01l-2.67-5.34c-5.25 2.31-9.21 3.59-13.45 3.59-8.1 0-12.24-4.32-13-14.27h30v-2.94c0-14.64-6.72-25.14-20.72-25.14-13.53 0-23.48 11.14-23.48 26.24 0 14.18 8.66 24.77 23.48 24.77 6.76.02 13.21-2.38 19.84-6.91zm-20.81-37.75c5.71 0 7.55 5.53 7.73 15.84H192.9c.28-10.75 3.22-15.82 8.38-15.82z"/>
	</g>
	<path fill="#666" fill-rule="evenodd" d="M323.98 102.11v7.36h-5.79v-7.89h.05a2.88 2.88 0 0 1 5.72 0v.32c0 .07.02.11.02.21zm-5.78 7.36h5.79V272.4h-5.76V111.42c-.02-.65-.03-1.3-.03-1.95zm0 162.94h5.76v7.89h-.06a2.87 2.87 0 0 1-5.7 0v-.11-.22-.2c.03-2.45.02-4.91.02-7.36z"/>
	<path fill="#fff" fill-rule="evenodd" stroke="#f4645f" stroke-miterlimit="10" stroke-width="5" d="M44.28 138.87h104.79a5.14 5.14 0 0 1 5.14 5.14v34.71a5.15 5.15 0 0 1-5.14 5.15H44.28a5.15 5.15 0 0 1-5.14-5.15v-34.71a5.14 5.14 0 0 1 5.14-5.14zM179.28 138.87h104.79a5.14 5.14 0 0 1 5.14 5.14v34.71a5.15 5.15 0 0 1-5.14 5.15H179.28a5.15 5.15 0 0 1-5.14-5.15v-34.71a5.14 5.14 0 0 1 5.14-5.14zM44.28 199.87h238.79a5.14 5.14 0 0 1 5.14 5.14v34.71a5.15 5.15 0 0 1-5.14 5.15H44.28a5.15 5.15 0 0 1-5.14-5.15v-34.71a5.14 5.14 0 0 1 5.14-5.14z"/>
	<path fill="#f4645f" fill-rule="evenodd" d="M44.28 260.87h151.79a5.14 5.14 0 0 1 5.14 5.14v34.71a5.15 5.15 0 0 1-5.14 5.15H44.28a5.15 5.15 0 0 1-5.14-5.15v-34.71a5.14 5.14 0 0 1 5.14-5.14z"/>
</svg>
